<?xml version="1.0" encoding="utf-8"?>
<!-- Generator: Adobe Illustrator 19.0.0, SVG Export Plug-In . SVG Version: 6.00 Build 0)  -->
<svg version="1.1" baseProfile="basic" id="Layer_1"
	 xmlns="http://www.w3.org/2000/svg" xmlns:xlink="http://www.w3.org/1999/xlink" x="0px" y="0px" viewBox="0 0 85 85"
	 xml:space="preserve">
<path id="XMLID_151_" fill="#D88207" d="M56.9,7.1c-4.3-2.6-9.4-4.2-14.9-4.2c-0.3,0-0.6,0-0.9,0l-18.7,0c-0.4,0-0.7,0.3-0.7,0.7
	c0,0.3,0.2,0.5,0.4,0.6c0,0,0.1,0,0.1,0.1c0.1,0,0.1,0,0.2,0v0.1c1.6,0.7,2.7,2.3,2.7,4.1c-0.3,0.3-0.7,0.5-1,0.8
	c-6.5,5-10.5,12.6-10.5,21.2v0.1c0,15.1,12.3,27,28.3,27c16.1,0,28.5-12,28.5-27.1v-0.1C70.5,20.3,65.1,11.8,56.9,7.1z M52.9,30.5
	c0,6.1-4.2,11.6-10.8,11.6c-6.7,0-10.9-5.6-10.9-11.7v-0.1c0-6.1,4.2-11.6,10.8-11.6c6.7,0,10.9,5.6,10.9,11.7V30.5z"/>
<rect id="XMLID_154_" x="12" y="60.8" fill="#D88207" width="60.4" height="9.5"/>
<g id="XMLID_476_">
	<path id="XMLID_477_" fill="#D88207" d="M13.5,78.4L13.5,78.4c0-1.5,1.2-2.6,2.7-2.6s2.7,1.2,2.7,2.6v0c0,1.4-1.2,2.6-2.7,2.6
		S13.5,79.8,13.5,78.4z M17.5,78.4L17.5,78.4c0-0.7-0.5-1.4-1.3-1.4c-0.8,0-1.3,0.6-1.3,1.3v0c0,0.7,0.5,1.4,1.3,1.4
		C17,79.7,17.5,79.1,17.5,78.4z"/>
	<path id="XMLID_480_" fill="#D88207" d="M22.5,75.9h2.2c1.3,0,2.1,0.7,2.1,1.8v0c0,1.2-0.9,1.8-2.1,1.8h-0.7v1.4h-1.4V75.9z
		 M24.6,78.4c0.5,0,0.8-0.3,0.8-0.7v0c0-0.4-0.3-0.7-0.8-0.7h-0.7v1.3H24.6z"/>
	<path id="XMLID_483_" fill="#D88207" d="M31.4,77.1h-1.5v-1.2h4.4v1.2h-1.5v3.8h-1.4V77.1z"/>
	<path id="XMLID_485_" fill="#D88207" d="M37.8,75.9h1.4v5h-1.4V75.9z"/>
	<path id="XMLID_487_" fill="#D88207" d="M43,75.9h1.5l1.2,1.9l1.2-1.9h1.5v5h-1.4V78l-1.3,2h0l-1.3-2v2.9H43V75.9z"/>
	<path id="XMLID_489_" fill="#D88207" d="M52.1,75.9h1.4v5h-1.4V75.9z"/>
	<path id="XMLID_491_" fill="#D88207" d="M57.1,79.9l2.5-2.8h-2.4v-1.2h4.3v1L59,79.7h2.5v1.2h-4.4V79.9z"/>
	<path id="XMLID_493_" fill="#D88207" d="M66.8,75.9h1.3l2.1,5h-1.5L68.4,80h-1.9l-0.4,0.9h-1.5L66.8,75.9z M68,78.9l-0.6-1.4
		l-0.6,1.4H68z"/>
</g>
</svg>
